<svg version="1.1" id="layer" xmlns="http://www.w3.org/2000/svg" x="0" y="0" style="enable-background:new 0 0 652 652" xml:space="preserve" viewBox="18 223.5 600 187"><ellipse cx="111.6" cy="317" rx="93.6" ry="93.5" style="fill:#fd1015"/><path d="M62 340.8c-.1.5-.5 1-1.1 1h-3.4c-.6 0-1.1-.5-1.1-1.1v-2.3c0-.6.5-1.1 1.1-1.1v-14.6c0-.6.5-1.1 1.1-1.1h86.9c6 0 11.4 2.6 15.2 6.8.3.3.6.8 1.1 1.3.4.6 1.1.9 1.8.9h4.5c1.2 0 2.2 1 2.2 2.3v6.8c0 1.2-1 2.3-2.3 2.3h-7.9c-.6 0-1.1-.5-1.1-1.1-.6-6.9-6.4-12.4-13.5-12.4s-12.9 5.5-13.5 12.4c0 .6-.5 1.1-1.1 1.1H90.3c-.6 0-1.1-.5-1.1-1.1-.6-6.9-6.4-12.4-13.5-12.4s-12.9 5.5-13.5 12.4c-.2-.2-.2-.1-.2-.1zm106-15.9c0 .6-.5 1.1-1.1 1.1h-1.8c-.3 0-.6-.1-.8-.4-.7-.8-1.3-1.5-1.8-1.9-4.4-4.2-10.4-6.8-17-6.8H58.6c-.6 0-1.1-.5-1.1-1.1v-26.2c0-5.1 3.7-9.3 8.7-10 15.1-2.1 29.4-3.2 42.8-3.2 23.9 0 33.2 1.9 42.1 6.8 5.5 3 10.6 10.1 15.5 21.5.9 2.1 1.4 4.4 1.4 6.7v13.5zm-110.5-6.8v2.3-2.3zm6.7-29.3c-.6 0-1.1.5-1.1 1.1v16.9c0 .6.5 1.1 1.1 1.1h16.9c.6 0 1.1-.5 1.1-1.1V290c0-.6-.5-1.1-1.1-1.1H64.2zm47.4 0c-.6 0-1.1.5-1.1 1.1v16.9c0 .6.5 1.1 1.1 1.1h16.9c.6 0 1.1-.5 1.1-1.1V290c0-.6-.5-1.1-1.1-1.1h-16.9zm-23.7 0c-.6 0-1.1.5-1.1 1.1v16.9c0 .6.5 1.1 1.1 1.1h16.9c.6 0 1.1-.5 1.1-1.1V290c0-.6-.5-1.1-1.1-1.1H87.9zm47.4 0c-.6 0-1.1.5-1.1 1.1v16.9c0 .6.5 1.1 1.1 1.1h26c.1 0 .3 0 .4-.1.6-.2.9-.9.6-1.5-1.2-3.2-2.7-6.2-4.3-8.9-.2-.4-.5-.8-.7-1.2-2.4-4.6-7.1-7.5-12.4-7.5h-9.6zm-59.8 62c-5 0-9-4-9-9s4-9 9-9 9 4 9 9-4 9-9 9zm0-4.5c2.5 0 4.5-2 4.5-4.5s-2-4.5-4.5-4.5-4.5 2-4.5 4.5 2 4.5 4.5 4.5zm70 4.5c-5 0-9-4-9-9s4-9 9-9 9 4 9 9-4.1 9-9 9zm0-4.5c2.5 0 4.5-2 4.5-4.5s-2-4.5-4.5-4.5-4.5 2-4.5 4.5 2 4.5 4.5 4.5z" style="fill:#fff"/><path id="logo-font" d="M263.9 313.5h24.5c-2.1-4.7-6.8-7.9-12.3-7.9-5.4 0-10.1 3.3-12.2 7.9zm37 10.3c-.3.5-.8.8-1.4.8h-35.7c2.1 4.7 6.8 7.9 12.3 7.9 2.6 0 5.1-.7 7.1-2 .5-.3 1-.7 1.7-1.3.6-.5 1.3-.7 2-.5l9.3 1.9c.9.2 1.4 1 1.2 1.9 0 .2-.1.4-.2.5-.1.1-.2.3-.3.4-2.3 3.4-5.4 6.2-9 8.1-3.6 1.9-7.6 3-11.9 3-14 0-25.3-11.3-25.3-25.3s11.3-25.3 25.3-25.3 25.3 11.3 25.3 25.3c0 1.6-.2 3.2-.4 4.7zm-67.5 17.3v-65.8c0-.8.5-1.4 1.3-1.6l8.6-1.8c.9-.2 1.8.4 1.9 1.3V341c0 .9-.7 1.6-1.6 1.6H235c-.8.2-1.6-.5-1.6-1.5zm118 1.7h-9.5c-.7 0-1.3-.4-1.6-1.1l-15.1-44.2c-.3-.9.2-1.8 1-2.1.2-.1.4-.1.5-.1h8.4c.7 0 1.3.4 1.6 1.1l9.2 26.8c.1.4.6.7 1 .5.2-.1.4-.3.5-.5l9.2-26.8c.2-.7.9-1.1 1.6-1.1h9.5c.7 0 1.3.4 1.6 1.1l9.2 26.8c.1.4.6.7 1 .5.2-.1.4-.3.5-.5l9.2-26.8c.2-.7.9-1.1 1.6-1.1h8.4c.9 0 1.6.7 1.6 1.6 0 .2 0 .4-.1.5l-15.1 44.2c-.2.7-.9 1.1-1.6 1.1h-9.5c-.7 0-1.3-.4-1.6-1.1l-9.2-26.8c-.1-.4-.6-.7-1-.5-.2.1-.4.3-.5.5l-9.2 26.8c-.3.7-.9 1.2-1.6 1.2zm89.3-2.8c-4.1 2.8-9 4.4-14.2 4.4-14 0-25.3-11.3-25.3-25.3s11.3-25.3 25.3-25.3c5.3 0 10.2 1.6 14.2 4.4V297c0-.9.7-1.6 1.6-1.6h8.7c.9 0 1.6.7 1.6 1.6v44.3c0 .9-.7 1.6-1.6 1.6h-8.7c-.9 0-1.6-.7-1.6-1.6V340zm-13.4-7.5c7.4 0 13.5-6 13.5-13.4s-6-13.4-13.5-13.4c-7.4 0-13.5 6-13.5 13.4s6.1 13.4 13.5 13.4zm70.4-34.4v-1.2c0-.9.7-1.6 1.6-1.6h8.7c.9 0 1.6.7 1.6 1.6v44.3c-.2 14-11.6 25.3-25.7 25.3-3.7 0-7.2-.8-10.3-2.2-.8-.4-1.9-1-3.3-1.8-.9-.6-1.4-1.7-1-2.8l2.8-8.1c.3-.8 1.2-1.3 2-1l.6.3c1 1 1.9 1.6 2.7 2 1.9 1 4.2 1.6 6.5 1.6 7.5 0 13.6-6 13.8-13.4V340c-4.1 2.8-9 4.4-14.2 4.4-14 0-25.3-11.3-25.3-25.3s11.3-25.3 25.3-25.3c5.3-.1 10.2 1.6 14.2 4.3zm-13.4 34.4c7.4 0 13.5-6 13.5-13.4s-6-13.4-13.5-13.4-13.5 6-13.5 13.4 6 13.4 13.5 13.4zm56.1 11.9c-14 0-25.3-11.3-25.3-25.3s11.3-25.3 25.3-25.3 25.3 11.3 25.3 25.3c.1 13.9-11.3 25.3-25.3 25.3zm0-11.9c7.4 0 13.5-6 13.5-13.4s-6-13.4-13.5-13.4c-7.4 0-13.5 6-13.5 13.4s6.1 13.4 13.5 13.4zm77.6-15.8v24.5c0 .9-.7 1.6-1.6 1.6h-9.5c-.9 0-1.6-.7-1.6-1.6v-24.5c0-6.1-5-11.1-11.1-11.1s-11.1 5-11.1 11.1v24.5c0 .9-.7 1.6-1.6 1.6h-8.7c-.9 0-1.6-.7-1.6-1.6v-44.3c0-.9.7-1.6 1.6-1.6h8.7c.9 0 1.6.7 1.6 1.6v.1c3.5-2.1 7.5-3.3 11.9-3.3 12.7 0 23 10.3 23 23z"/></svg>